<?xml version="1.0" encoding="UTF-8"?>
<svg version="1.1" xmlns="http://www.w3.org/2000/svg" width="512" height="512">
<path d="M0 0 C168.96 0 337.92 0 512 0 C512 168.96 512 337.92 512 512 C343.04 512 174.08 512 0 512 C0 343.04 0 174.08 0 0 Z " fill="#E11D48" transform="translate(0,0)"/>
<path d="M0 0 C3.24697781 3.24051116 6.47781667 6.49586057 9.6953125 9.765625 C11.50506177 11.59389509 13.31496216 13.42201561 15.125 15.25 C16.011875 16.15363281 16.89875 17.05726562 17.8125 17.98828125 C23.89077539 24.11060212 30.25373614 29.63016419 37 35 C38.06214908 35.88744766 39.12053223 36.77946398 40.171875 37.6796875 C81.07594738 72.51012489 130.33742724 96.84538208 177.79101562 121.34326172 C258.43272687 162.9770606 258.43272687 162.9770606 291 194 C291.85207031 194.78761719 292.70414062 195.57523438 293.58203125 196.38671875 C305.27185618 207.52426849 313.37651395 220.384279 320 235 C320.40863281 235.85722656 320.81726563 236.71445312 321.23828125 237.59765625 C325.8078167 247.88352177 327.60377167 259.49300361 328.98901367 270.58666992 C331.77476822 292.44590771 342.85818739 311.01738972 359.7109375 325.28515625 C365.41226751 329.55628914 371.63799066 333.1183816 377.84765625 336.59375 C387.95063835 342.32334467 393.3222012 349.96660361 397 361 C397.94697256 373.66769857 396.3513383 384.03545615 387.9765625 393.99609375 C380.2939352 401.78500245 371.31725597 405.07028856 360.5 405.375 C350.02976791 405.06777488 342.60270792 402.29239331 335 395 C326.29979918 385.59026824 324.33382213 377.72100866 324.70703125 365.08203125 C325.08772692 358.04799613 327.34802664 352.93317801 331 347 C322.50422968 351.80030072 314.4504726 356.97620173 306.625 362.8125 C305.82288086 363.41046387 305.02076172 364.00842773 304.19433594 364.62451172 C302.5787474 365.8311767 300.96367153 367.0385284 299.34912109 368.24658203 C277.22737816 384.75857099 255.78409563 399.38479663 227 397 C208.60762065 393.59628208 192.1065023 381.94811557 179 369 C179 368.67 179 368.34 179 368 C179.62229492 367.99589111 180.24458984 367.99178223 180.88574219 367.98754883 C215.43477986 367.59134427 243.15428934 354.71105089 272.6328125 337.58276367 C298.7307185 322.42309383 298.7307185 322.42309383 312 318 C292.36803862 317.2367704 273.44399935 321.99871578 254.48999023 326.47729492 C242.60707767 329.28265412 230.71891879 331.96349062 218.75 334.375 C217.51983154 334.62556152 216.28966309 334.87612305 215.0222168 335.13427734 C183.84925975 341.31680985 151.92911663 339.96548193 124.71728516 322.22607422 C119.33321614 318.3820602 114.68405138 313.64523328 110 309 C109.33484375 308.38382812 108.6696875 307.76765625 107.984375 307.1328125 C104.17225944 303.55227405 100.95842968 299.55387774 97.75 295.4375 C97.11251831 294.62357788 97.11251831 294.62357788 96.4621582 293.79321289 C93.84770971 290.36568079 91.81026553 286.90852786 90 283 C94.41350073 283.97045396 98.82316088 284.9510526 103.21875 286 C103.92515625 286.165 104.6315625 286.33 105.359375 286.5 C106.75684221 286.8264157 108.15278275 287.15945838 109.546875 287.5 C123.87506747 290.79857668 138.47940693 291.43663279 153.125 291.4375 C154.00753448 291.43956451 154.89006897 291.44162903 155.79934692 291.4437561 C182.54590333 291.43275724 209.34668689 288.41274192 235.70872498 283.98503113 C241.31401919 283.05290305 246.85400031 282.51821132 252.53125 282.2109375 C255.13336698 282.08571969 255.13336698 282.08571969 258 281 C260.65606301 280.84653047 263.29095095 280.74282102 265.94921875 280.68359375 C266.72183548 280.66281265 267.49445221 280.64203156 268.29048157 280.62062073 C270.7560648 280.55528962 273.22175361 280.49631685 275.6875 280.4375 C277.36003691 280.39429913 279.03256319 280.35068434 280.70507812 280.30664062 C284.8032775 280.1996251 288.90158296 280.09831143 293 280 C285.32468674 277.52197675 277.75548076 275.3443981 269.8125 273.9375 C268.62430664 273.71610352 268.62430664 273.71610352 267.41210938 273.49023438 C264.61109091 272.97522943 261.80582824 272.48813069 259 272 C257.72479492 271.76804932 256.44958984 271.53609863 255.13574219 271.29711914 C243.72415739 269.264255 232.29081011 267.98015252 220.75680542 266.86569214 C216.45252378 266.44899181 212.14981735 266.01698572 207.8469696 265.58576965 C205.67117468 265.36773671 203.49532239 265.1502754 201.31941223 264.93339539 C120.77303895 256.90237306 120.77303895 256.90237306 91 242 C90.03030273 241.52626953 90.03030273 241.52626953 89.04101562 241.04296875 C80.59683725 236.8911788 73.09119144 232.24359112 66 226 C65.19304687 225.33613281 64.38609375 224.67226563 63.5546875 223.98828125 C47.15704328 210.08369579 35.62973236 190.32886984 29 170 C29 169.01 29 168.02 29 167 C32.59553098 168.30312413 35.81379713 169.98425933 39.10913086 171.91796875 C85.84084943 199.29933316 140.3229203 207.91378879 192.87701416 217.07797241 C206.72312943 219.49439406 220.54360254 221.98644356 234.3125 224.8125 C234.97871368 224.9475293 235.64492737 225.08255859 236.33132935 225.22167969 C249.29189755 227.86075088 261.85823576 231.4986792 274.375 235.75 C275.3134375 236.06582031 276.251875 236.38164062 277.21875 236.70703125 C279.48014114 237.4685201 281.74053174 238.2328287 284 239 C270.33963529 229.66698281 256.7058857 220.61320834 242 213 C241.36819824 212.67161133 240.73639648 212.34322266 240.08544922 212.00488281 C236.23104915 210.01480102 232.34508556 208.09545784 228.44636536 206.19403076 C226.76546366 205.37361025 225.08566091 204.55093554 223.40678406 203.72637939 C208.33940262 196.33658665 193.11033799 189.49112664 177.63299561 183.00717163 C157.89502265 174.73118093 138.26424243 166.33219475 119 157 C118.10990234 156.57541504 117.21980469 156.15083008 116.30273438 155.71337891 C90.70309118 143.4884565 66.36819335 128.92540654 46 109 C45.06929687 108.11957031 44.13859375 107.23914063 43.1796875 106.33203125 C27.41328127 91.1145946 16.62761839 73.44632282 9 53 C8.30583984 51.19982422 8.30583984 51.19982422 7.59765625 49.36328125 C1.85140089 33.48684926 -0.86956856 16.85996811 0 0 Z " fill="#FEFDFD" transform="translate(59,54)"/>
</svg>
